<svg width="24" height="24" viewBox="0 0 24 24" fill="none" xmlns="http://www.w3.org/2000/svg">
<path d="M12.2791 8.83299L12.0001 9.11199L11.7211 8.83299C11.4658 8.57448 11.1617 8.36923 10.8264 8.22915C10.4912 8.08906 10.1314 8.01693 9.7681 8.01693C9.40476 8.01693 9.04503 8.08906 8.70978 8.22915C8.37453 8.36923 8.07042 8.57448 7.8151 8.83299C7.55644 9.08833 7.35106 9.3925 7.21089 9.72784C7.07072 10.0632 6.99854 10.423 6.99854 10.7865C6.99854 11.1499 7.07072 11.5098 7.21089 11.8451C7.35106 12.1805 7.55644 12.4846 7.8151 12.74L12.0001 16.926L16.1861 12.74C16.4448 12.4846 16.6501 12.1805 16.7903 11.8451C16.9305 11.5098 17.0027 11.1499 17.0027 10.7865C17.0027 10.423 16.9305 10.0632 16.7903 9.72784C16.6501 9.3925 16.4448 9.08833 16.1861 8.83299C15.9307 8.57445 15.6265 8.36918 15.2912 8.22908C14.9558 8.08899 14.596 8.01685 14.2326 8.01685C13.8692 8.01685 13.5094 8.08899 13.174 8.22908C12.8387 8.36918 12.5345 8.57445 12.2791 8.83299Z" fill="#585555"/>
<path d="M12 2C6.486 2 2 6.486 2 12C2 17.514 6.486 22 12 22C17.514 22 22 17.514 22 12C22 6.486 17.514 2 12 2ZM12 20C7.589 20 4 16.411 4 12C4 7.589 7.589 4 12 4C16.411 4 20 7.589 20 12C20 16.411 16.411 20 12 20Z" fill="#585555"/>
</svg>
